Great Expectations (1946)  The Criterion Collection

Director: David Lean



    * United Kingdom
    * 1946
    * 118 minutes
    * Black and White
    * 1.33:1
    * English
    *  
    * Spine #31

SYNOPSIS: One of the great translations of literature into film, David Lean’s Great Expectations brings Charles Dickens’s masterpiece to robust on-screen life. Pip, Magwitch, Miss Havisham, and Estella populate Lean’s magnificent miniature, beautifully photographed by Guy Green and designed by John Bryan.

Great Expectations reveals a director free of any stage conventions and relishing his craft. The opening of the film has been studied for years and is held up as an exemplar of film editing. But it is also a brilliant synthesis of location shooting (the pan across the marshes with their lonely gibbets) with a studio set (graves with a back-projected church and looming sky), in which the hero, Pip, has his first fateful meeting with the fearsome Magwitch.

Straight from the first two pages of Dickens, Pip’s narration and his description of the graveyard is so thick with detail that the shock of the criminal is diminished. It takes a movie, and a visual stylist like Lean, to translate this into pictures. From the very start, Lean brings Great Expectations close to the horror film—and the scene has been copied in horror films ever since.

The scenes in Miss Havisham’s decaying, petrified, and cobwebbed house show a similar Gothic concern, a heightening of Dickens’ already vivid description. These scenes also influenced horror movies, as well as Billy Wilder’s Sunset Boulevard, with its embittered Norma Desmond living in a musty mausoleum and contriving disaster amongst the emotional lives of the young.

Media Info:
General
Complete name                    : C:\Documents and Settings\Owner\Desktop\Great Expectations (1946)[DVDRip][big_dad_e]\Great Expectations (1946)[DVDRip][big_dad_e].avi
Format                           : AVI
Format/Info                      : Audio Video Interleave
File size                        : 1.11 GiB
Duration                         : 1h 58mn
Overall bit rate                 : 1 342 Kbps

Video
ID                               : 0
Format                           : MPEG-4 Visual
Format profile                   : Simple@L1
Format settings, BVOP            : No
Format settings, QPel            : No
Format settings, GMC             : No warppoints
Format settings, Matrix          : Default (H.263)
Codec ID                         : DIVX
Codec ID/Info                    : Project Mayo
Codec ID/Hint                    : DivX 4
Duration                         : 1h 58mn
Bit rate                         : 1 200 Kbps
Width                            : 720 pixels
Height                           : 480 pixels
Display aspect ratio             : 4:3
Frame rate                       : 29.970 fps
Standard                         : NTSC
Resolution                       : 24 bits
Colorimetry                      : 4:2:0
Scan type                        : Progressive
Bits/(Pixel*Frame)               : 0.116
Stream size                      : 1 016 MiB (89%)
Writing library                  : avc2.0.11.1110

Audio
ID                               : 1
Format                           : MPEG Audio
Format version                   : Version 1
Format profile                   : Layer 3
Codec ID                         : 55
Codec ID/Hint                    : MP3
Duration                         : 1h 58mn
Bit rate mode                    : Constant
Bit rate                         : 128 Kbps
Channel(s)                       : 2 channels
Sampling rate                    : 48.0 KHz
Resolution                       : 16 bits
Stream size                      : 108 MiB (10%)
Alignment                        : Aligned on interleaves
Interleave, duration             : 24 ms (0.72 video frame)
Writing library                  : LAMEé

File Scan:
Malwarebytes' Anti-Malware 1.46
www.malwarebytes.org

Database version: 4713

Windows 5.1.2600 Service Pack 3
Internet Explorer 8.0.6001.18702

9/28/2010 11:02:16 PM
mbam-log-2010-09-28 (23-02-16).txt

Scan type: Quick scan
Objects scanned: 9
Time elapsed: 12 second(s)

Memory Processes Infected: 0
Memory Modules Infected: 0
Registry Keys Infected: 0
Registry Values Infected: 0
Registry Data Items Infected: 0
Folders Infected: 0
Files Infected: 0

Memory Processes Infected:
(No malicious items detected)

Memory Modules Infected:
(No malicious items detected)

Registry Keys Infected:
(No malicious items detected)

Registry Values Infected:
(No malicious items detected)

Registry Data Items Infected:
(No malicious items detected)

Folders Infected:
(No malicious items detected)

Files Infected:
(No malicious items detected)

When using TPB please read these important notes:
  
01- Anti-malware apps may warn about keygens, patches, cracks, etc., because of 
    their capabilities, (generating codes, etc.). Sometimes they're added to 
    the virus/spyware database and will be detected as malware. If you don't trust
    the keygens, patches, cracks, etc., don't use them. 
    
02- Before running .exe-files, keygens, patches, cracks, etc., always check first 
    if they can be unpacked. Often some third party added a virus to the 
    original file, repacked it and uploaded it again.

03- Letting anti-malware apps send scan results to their companies can cause
    keygens, patches, cracks, etc., to be added to their virus-database.

04- Firewalls which are set to automatically determine connections will allow 
    apps & malware!. Avoid this by manually configuring your firewall.

05- Usually (new) torrents with many downloads and seeders in a brief period is
    suspicious! Torrents with the Skull & Crossbones icon are trusted.

06- Some people use multiple accounts and post fake comments 
    and/or files trying to spread confusion. They seldom seriously
    comment or have any torrents, or a just a few to look passable.

07- Clicking on unknown links can cause malware to be installed on your machine.
  
08- In general often there are more fake and negative comments than reliable and
    positive comments.

09- In some countries uploading/downloading copyright protected material is 
    forbidden, but showing some appreciation to reliable up-loaders is not.

10- Posting fake and negative comments or fake/infected uploads on TPB can result
    in getting banned from TPB!
 

For reporting bad or suspicious torrents:  
http://forum.suprbay.org/forumdisplay.php?fid=29

For more of my torrents: 
https://thepiratebay.org/user/big_dad_e/  (Secured)

All torrents scanned with:
Norton Anti-virus
Malwarebytes' Anti-malware
 
http://www.pirate-party.us/

ALWAYS SEED!  &  THANKS SEEDERS!




